OpenSim_Sub01_CSStiffKnee_GRF.mot
version=1
nRows=34
nColumns=19
inDegrees=no
endheader
time	lFx	lFy	lFz	lCOPx	lCOPy	lCOPz	rFx	rFy	rFz	rCOPx	rCOPy	rCOPz	lMx	lMy	lMz	rMx	rMy	rMz
40.35000000	22.02365557	319.26232597	4.52975358	0.80136013	0	-0.62501261	-47.85831826	516.88753425	-21.83240809	1.11571504	0	-0.43514656	0	0.20629995	0	0	-2.19494382	-0.00000000
40.36000000	16.05196328	257.82046473	1.03594251	0.80239021	0	-0.63151457	-47.96027690	536.09133023	-28.88710032	1.11250893	0	-0.43400317	0	-0.41310645	0	0	-2.60793548	0.00000000
40.37000000	8.30600868	199.07490962	-1.33969294	0.80400069	0	-0.63885450	-45.90062820	546.23188216	-34.79955326	1.10870933	0	-0.43311388	0	-1.33223076	0	0	-3.04115312	-0.00000000
40.38000000	-0.57649452	145.29883979	-2.61707241	0.79235965	0	-0.63545960	-42.85209302	551.99975617	-38.91062493	1.10409191	0	-0.43235565	0	-2.38018729	0	0	-3.51882980	0
40.39000000	-8.86281350	98.11669942	-3.32379496	0.73713917	0	-0.59604868	-39.27115990	557.43445482	-40.99757654	1.09898444	0	-0.43178281	0	-3.11462131	0	0	-3.99512255	0
40.40000000	-14.02516405	59.14493512	-4.11678295	0.59810960	0	-0.48704128	-35.23742875	565.23679988	-41.23970540	1.09360777	0	-0.43139753	0	-3.02035510	0	0	-4.44991953	0
40.41000000	-13.67237532	29.32669146	-5.36725924	0.36737299	0	-0.30099385	-30.82759298	575.93586747	-40.36670995	1.08820203	0	-0.43119482	0	-1.97720587	0	0	-4.88969680	-0.00000000
40.42000000	-9.08703034	9.47930074	-6.64551504	0.14439985	0	-0.11909793	-26.30778178	588.07116841	-39.45024637	1.08279127	0	-0.43113177	0	-0.82239468	0	0	-5.32992112	0
40.43000000	-4.64069345	-0.21744875	-7.32281690	0.01960144	0	-0.01669630	-22.33135402	599.52756886	-39.26771895	1.07755157	0	-0.43101991	0	-0.14198405	0	0	-5.74036015	-0.00000000
40.44000000	-2.13732576	-2.86908656	-7.45113354	-0.02226909	0	0.01793997	-19.51747613	608.30667485	-40.07108994	1.07264813	0	-0.43078011	0	0.10234629	0	0	-6.08302959	0.00000000
40.45000000	-1.17663285	-2.46053777	-7.26826646	-0.02313351	0	0.01887512	-17.80614466	613.36744501	-41.75825196	1.06821856	0	-0.43048423	0	0.12000569	0	0	-6.32679307	-0.00000000
40.46000000	-0.98244676	-1.42314871	-6.99633180	-0.01278868	0	0.01049517	-16.76845214	614.96791715	-43.82739188	1.06418348	0	-0.43022870	0	0.06981618	0	0	-6.48993741	0
40.47000000	-1.04198542	-0.63705651	-6.73025027	-0.00421567	0	0.00348855	-16.00786513	614.20458476	-45.54156209	1.06034118	0	-0.43006133	0	0.02467177	0	0	-6.59298093	0
40.48000000	-1.13188608	-0.23324865	-6.57125146	-0.00002808	0	0.00004637	-15.33799627	612.03255594	-46.45553414	1.05655776	0	-0.43008813	0	0.00149039	0	0	-6.64599708	0.00000000
40.49000000	-1.18151547	-0.13869017	-6.52079125	0.00108911	0	-0.00088260	-14.59207320	608.84334203	-46.50102665	1.05260232	0	-0.43035983	0	-0.00530419	0	0	-6.62861749	0.00000000
40.50000000	-1.17944425	-0.25110726	-6.55727788	0.00088598	0	-0.00072421	-13.60423639	604.79483108	-45.76886560	1.04824348	0	-0.43087285	0	-0.00467187	0	0	-6.54041298	0
40.51000000	-1.13560247	-0.38955926	-6.66942018	0.00042748	0	-0.00035145	-12.25000586	600.72812731	-44.30221602	1.04328614	0	-0.43162504	0	-0.00236991	0	0	-6.40545176	-0.00000000
40.52000000	-1.10191548	-0.44762669	-6.75685820	0.00011120	0	-0.00009252	-10.65057036	598.19288743	-42.27492660	1.03778625	0	-0.43255429	0	-0.00067971	0	0	-6.22564851	0
40.53000000	-1.11012347	-0.38672120	-6.78078958	-0.00002304	0	0.00001805	-9.17381023	598.12370422	-39.88616551	1.03215272	0	-0.43357660	0	0.00007669	0	0	-6.01451994	0
40.54000000	-1.14006516	-0.29295635	-6.78575000	-0.00004791	0	0.00003896	-8.04033608	600.62570968	-37.48613677	1.02669655	0	-0.43458356	0	0.00024111	0	0	-5.79290323	0.00000000
40.55000000	-1.17140363	-0.21559511	-6.77830593	-0.00003257	0	0.00002667	-7.15570832	605.60191229	-35.43972013	1.02140586	0	-0.43548197	0	0.00017428	0	0	-5.56479545	0.00000000
40.56000000	-1.20322523	-0.17859416	-6.81814638	-0.00001364	0	0.00001124	-6.47263555	612.30596065	-34.01301775	1.01640118	0	-0.43619589	0	0.00007700	0	0	-5.39731002	0
40.57000000	-1.23175681	-0.15443109	-6.88385875	-0.00000241	0	0.00000203	-6.04113293	619.26361105	-33.45256351	1.01182817	0	-0.43671762	0	0.00001616	0	0	-5.31401437	0
40.58000000	-1.26872426	-0.14874996	-6.92860904	0.00000165	0	-0.00000132	-5.75877127	625.30486010	-33.78989146	1.00749245	0	-0.43708935	0	-0.00000727	0	0	-5.25359720	0
40.59000000	-1.32031028	-0.14113258	-6.94365952	0.00000197	0	-0.00000160	-5.40498107	629.95554914	-34.80934242	1.00309063	0	-0.43737920	0	-0.00001013	0	0	-5.14509829	0
40.60000000	-1.38492423	-0.15972588	-6.94558829	0.00000115	0	-0.00000094	-4.82837726	633.22883337	-36.20517622	0.99852353	0	-0.43766329	0	-0.00000625	0	0	-5.01720833	-0.00000000
40.61000000	-1.46476474	-0.24051450	-6.95979412	0.00000041	0	-0.00000034	-4.08150657	635.45830304	-37.54736308	0.99375720	0	-0.43797947	0	-0.00000237	0	0	-4.87563246	-0.00000000
40.62000000	-1.56204248	-0.24739782	-6.97389280	0.00000003	0	-0.00000002	-3.31206798	637.25563905	-38.44973248	0.98891909	0	-0.43833254	0	-0.00000026	0	0	-4.66231465	0.00000000
40.63000000	-1.64732362	-0.15583886	-6.98118479	-0.00000009	0	0.00000007	-2.77735816	639.35119113	-38.59834265	0.98412263	0	-0.43873153	0	0.00000041	0	0	-4.38407326	0
40.64000000	-1.72288729	-0.04748677	-6.96243204	-0.00000008	0	0.00000006	-2.55213808	642.33044158	-37.93436358	0.97943496	0	-0.43917253	0	0.00000040	0	0	-4.03643138	-0.00000000
40.65000000	-1.79522684	0.03948870	-6.97015876	-0.00000004	0	0.00000003	-2.58151979	646.28963559	-36.74625624	0.97488935	0	-0.43962928	0	0.00000021	0	0	-3.59832909	-0.00000000
40.66000000	-1.85643235	0.07321222	-7.03184961	-0.00000001	0	0.00000001	-2.69915022	650.60007678	-35.39379123	0.97059042	0	-0.44003164	0	0.00000005	0	0	-3.11254816	-0.00000000
40.67000000	-1.92002883	0.06793235	-7.11840748	0.00000001	0	-0.00000000	-2.73303962	654.44011276	-34.15780641	0.96646619	0	-0.44030815	0	-0.00000003	0	0	-2.63017575	0.00000000
40.68000000	-1.99850142	0.09008855	-7.22239818	0.00000001	0	-0.00000000	-2.43475947	657.15159490	-33.46467859	0.96225036	0	-0.44046322	0	-0.00000002	0	0	-2.14255503	0
